<svg xmlns="http://www.w3.org/2000/svg" viewBox="0 0 184.25 107.25">
<defs><style>.cls-1{fill:#ed1c24;fill-rule:evenodd;}</style>
</defs><g id="Layer_2" data-name="Layer 2"><g id="katman_1" data-name="katman 1">
<path class="cls-1" d="M64.23,21.61h0A32.06,32.06,0,0,1,79,25.2c.68.37,1.41.78,2.09,1.2a33.18,33.18,0,0,1,9.1,8.32c.2.31-.26.73-.52.52h0c-.63-.52-1.3-1-2-1.46S86.33,33,85.6,32.54A27,27,0,0,0,73,29.47h0a26.64,26.64,0,0,0-18.2,7.07A23.52,23.52,0,0,0,47.22,53.6v0h0a23.54,23.54,0,0,0,7.54,17.06A26.69,26.69,0,0,0,73,77.78H73a26.94,26.94,0,0,0,9-1.51c.47-.15.94-.36,1.35-.52A27.74,27.74,0,0,0,89.66,72c.26-.21.72.2.52.52h0a31.87,31.87,0,0,1-2.71,3.12,24.67,24.67,0,0,1-3,2.8,32.17,32.17,0,0,1-20.23,7.18h0A32.21,32.21,0,0,1,32,53.65h0v0a32.23,32.23,0,0,1,32.19-32Z"/><polygon class="cls-1" points="100.11 39.61 106.71 48.4 117.17 44.86 110.82 53.86 117.43 62.7 106.87 59.42 100.52 68.42 100.37 57.45 89.86 54.17 100.27 50.63 100.11 39.61 100.11 39.61"/><polygon class="cls-1" points="0 0 184.25 0 184.25 13.73 0 13.73 0 0 0 0"/><polygon class="cls-1" points="0 93.52 184.25 93.52 184.25 107.25 0 107.25 0 93.52 0 93.52"/></g></g></svg>